<svg version="1.1" id="Layer_1" xmlns="http://www.w3.org/2000/svg" xmlns:xlink="http://www.w3.org/1999/xlink" x="0px" y="0px"
	 width="100%" viewBox="0 0 672 1024" enable-background="new 0 0 672 1024" xml:space="preserve">
<path fill="#000000" opacity="1.000000" stroke="none" 
	d="
M1.000000,283.000000 
	C1.000000,248.979111 1.000000,214.958206 1.185112,180.691681 
	C2.397789,184.073975 5.818520,183.086319 8.077906,183.375610 
	C12.495438,183.941223 16.772879,186.990997 21.538910,184.093597 
	C27.187443,180.659729 33.447205,178.443909 38.538074,173.825317 
	C44.289322,168.607574 49.737785,168.737320 56.281731,173.227295 
	C60.814373,176.337250 65.670837,178.197342 71.142601,178.489563 
	C79.284897,178.924423 87.465889,178.832138 95.516975,180.469406 
	C97.722702,180.917969 99.738327,179.877197 101.818832,179.266983 
	C112.222534,176.215576 119.389870,167.933701 128.491806,162.923431 
	C136.439270,158.548676 137.810318,152.406204 136.946091,144.567169 
	C136.666016,142.026703 135.708130,139.790024 134.753418,137.465408 
	C132.998520,133.192459 135.169434,129.256790 138.890961,130.394394 
	C143.692291,131.862061 148.040634,130.356750 152.583679,130.367325 
	C156.642654,130.376755 157.529541,128.689529 157.294678,125.268280 
	C156.909546,119.658081 157.809402,118.727272 163.445282,118.245270 
	C169.489197,117.728371 174.907532,114.489067 181.052856,114.168015 
	C182.511520,114.091812 184.450394,112.890770 185.205261,111.630333 
	C187.313614,108.109955 189.311707,108.477936 191.926331,110.917458 
	C195.617126,114.361061 199.708908,114.581650 203.737701,111.615173 
	C208.309891,108.248604 213.605637,107.210716 218.910278,107.661438 
	C225.488205,108.220352 231.413177,106.680817 237.361526,104.340630 
	C240.297134,103.185699 243.338516,102.144470 246.428406,101.570648 
	C252.035187,100.529411 257.640564,100.224922 262.999817,103.034874 
	C277.550018,110.663818 292.543152,108.817764 307.068420,103.682930 
	C315.258423,100.787666 323.222443,98.685257 331.857697,99.265930 
	C337.537933,99.647896 343.280426,99.677582 348.753448,98.214928 
	C364.544678,93.994736 380.231873,96.491829 395.735413,99.183395 
	C405.675018,100.909019 415.222931,104.811401 425.014435,107.489456 
	C437.164825,110.812683 449.035706,115.774826 462.105164,114.146561 
	C464.267273,113.877182 466.366150,114.726768 468.367493,115.626518 
	C474.470154,118.370094 480.107513,121.927773 485.668152,125.598999 
	C488.037384,127.163162 490.850250,129.033432 491.217560,131.796463 
	C492.316681,140.064194 495.893219,146.911942 501.403778,152.977707 
	C502.255188,153.914917 502.660553,155.329742 503.061981,156.590622 
	C504.679535,161.671005 507.677856,165.798752 511.665771,169.240372 
	C514.340698,171.548798 516.525635,174.239639 518.481201,177.169754 
	C525.077881,187.053589 532.562500,195.715424 545.293335,197.755020 
	C548.007629,198.189865 550.560059,199.782288 553.122009,200.980438 
	C555.725281,202.197906 558.383240,203.110901 561.281006,203.042999 
	C573.603210,202.754288 585.847351,203.270004 598.113037,204.857574 
	C611.072998,206.535004 623.815979,208.364029 635.138245,216.705017 
	C629.002502,224.065735 630.117859,233.725281 631.189453,241.658600 
	C632.832947,253.827271 633.643982,265.740387 633.458679,277.982086 
	C633.349854,285.168274 633.508911,292.124451 631.660095,299.182800 
	C629.268982,308.311615 626.574890,317.562775 630.535156,327.084076 
	C631.493103,329.387085 631.012146,332.053375 630.243164,334.472290 
	C628.172302,340.986816 625.909851,347.443085 622.445923,353.370178 
	C615.483948,365.282715 610.709106,377.570068 614.998840,391.673248 
	C615.323181,392.739441 615.044006,393.989990 615.041138,395.154816 
	C615.013611,406.451904 616.428040,417.742706 615.065247,429.051392 
	C614.742493,431.729431 615.742859,434.314880 616.627625,436.839020 
	C618.469727,442.094666 618.654907,447.564453 619.139160,453.058136 
	C620.944580,473.540985 621.322021,494.318848 630.296082,513.504028 
	C631.201172,515.438904 631.784485,517.611023 632.069580,519.733154 
	C632.973389,526.462769 635.174194,532.762268 638.822021,538.393494 
	C644.415222,547.027954 645.624451,556.563843 646.115173,566.518311 
	C646.555664,575.453796 645.157532,584.108276 643.798584,592.832703 
	C643.099854,597.318604 641.414917,601.065979 637.702881,603.870422 
	C634.440979,606.334778 633.736938,609.596069 634.470703,613.648926 
	C635.953064,621.836792 637.072266,629.983887 630.262756,636.906921 
	C627.965454,639.242493 627.774353,642.720337 629.837280,645.731140 
	C631.245300,647.786133 632.569153,650.001587 634.375671,651.660889 
	C639.202332,656.094238 641.679382,661.498535 641.975159,667.962524 
	C642.105835,670.819336 643.307983,672.971069 645.528259,674.795044 
	C648.223022,677.008850 650.852844,679.344788 653.230957,681.889404 
	C655.844910,684.686401 658.759888,685.857605 662.596558,685.347046 
	C666.029663,684.890076 669.498535,683.987854 673.000000,685.000000 
	C673.000000,706.687561 673.000000,728.375122 672.641113,750.596802 
	C668.758667,752.232727 665.807434,750.645386 662.759583,749.228027 
	C655.490112,745.847168 650.057251,748.801697 649.150330,756.570068 
	C648.818970,759.408081 649.439392,762.205505 649.636902,765.023376 
	C650.485291,777.130310 646.477600,787.687256 638.399841,796.541138 
	C634.581909,800.725830 631.158386,800.052368 627.647156,795.595337 
	C626.146912,793.690918 625.240601,791.172791 622.119690,789.961487 
	C618.152039,795.674011 615.428467,802.074524 613.544922,808.656067 
	C610.875488,817.983337 606.182007,825.302185 597.200623,829.542236 
	C594.129578,830.992004 591.061401,833.103088 590.273804,836.394775 
	C588.745972,842.780701 586.130188,848.850281 586.699341,855.866577 
	C587.242310,862.560242 587.013611,870.405701 581.188110,874.808289 
	C571.763855,881.930786 564.788513,891.297546 556.464417,899.391235 
	C552.599487,903.149231 548.583008,904.847900 543.562805,904.361389 
	C539.598755,903.977295 535.704224,902.925476 531.752319,902.351990 
	C528.641602,901.900513 526.210144,902.170471 524.627747,905.946838 
	C522.568420,910.861389 519.276123,915.245178 516.743286,919.979858 
	C514.731262,923.741150 511.979797,925.514954 507.574799,925.567078 
	C503.105682,925.619934 498.578522,925.221863 494.132202,926.235535 
	C489.325500,927.331421 484.914856,931.683411 484.563141,935.820190 
	C491.219269,935.263367 493.831390,935.547546 494.858734,937.167664 
	C495.738678,938.555298 495.937561,939.963318 494.331818,940.857117 
	C492.203949,941.336182 492.263123,938.664917 490.636292,938.607300 
	C486.167023,944.202271 486.171692,944.198547 481.551331,938.452576 
	C481.249878,938.077759 480.811646,937.581787 480.409241,937.554749 
	C476.007446,937.258423 472.528229,934.381836 468.261444,933.403809 
	C462.856232,932.164795 457.066467,932.893005 452.043488,928.869751 
	C438.998230,918.420776 424.176361,917.382568 408.698273,922.640137 
	C406.059357,923.536560 403.503235,924.112183 400.939880,922.933105 
	C396.879150,921.065308 392.778137,921.310608 388.739655,922.614136 
	C377.665161,926.188782 366.409424,927.201477 354.886902,925.586548 
	C352.477936,925.248840 350.092133,925.991028 348.328522,927.536987 
	C343.583588,931.696167 337.794006,931.123352 333.232544,929.015381 
	C326.683594,925.988953 321.117279,927.106445 315.027466,929.393677 
	C309.344696,931.528015 302.947205,929.237915 299.070770,924.461060 
	C295.850372,920.492432 291.938080,917.232117 286.599304,916.927673 
	C268.535889,915.897583 250.508865,913.479553 232.351608,915.939331 
	C224.678894,916.978760 216.352371,920.390503 210.328918,911.701660 
	C209.357971,910.301025 207.121048,910.096313 205.270813,909.835266 
	C201.296616,909.274658 197.383224,908.495117 193.907486,906.292419 
	C192.744705,905.555542 191.414810,905.542175 190.055313,905.506226 
	C182.224747,905.299622 174.469620,905.514954 166.972366,908.233154 
	C164.087753,909.278992 161.086456,908.603638 158.094254,908.533936 
	C150.943970,908.367615 144.058395,905.570557 136.837387,906.549927 
	C128.026962,907.744751 122.757759,904.561340 122.400276,895.782288 
	C122.016808,886.364929 117.755905,880.235657 110.299538,875.482483 
	C108.482674,874.324341 106.901505,872.802124 105.170723,871.502197 
	C100.415382,867.930542 100.201645,865.867981 104.189316,861.377380 
	C104.742157,860.754761 105.364975,860.193420 105.906555,859.561890 
	C109.931892,854.867676 109.107353,851.783325 103.191727,850.242615 
	C99.890236,849.382690 96.963722,847.966553 94.239777,845.982178 
	C91.369461,843.890930 88.177017,842.628052 84.653175,841.972717 
	C76.586212,840.472412 73.802017,836.610107 74.730354,828.197876 
	C75.224655,823.718689 73.445236,820.871216 69.894463,818.093018 
	C62.051056,811.956238 52.745712,811.667297 43.733681,811.377319 
	C32.424557,811.013550 32.396412,811.625854 27.474251,800.916931 
	C24.770798,795.035095 19.037254,790.897766 15.012387,791.924500 
	C10.115467,793.173706 6.583689,790.963440 5.498081,785.829956 
	C4.800618,782.531921 5.184619,779.196533 5.425811,775.867859 
	C5.544661,774.227661 5.650681,772.509399 5.300547,770.928772 
	C4.615706,767.837036 3.050327,767.461853 1.000000,770.000000 
	C1.000000,763.978821 1.000000,757.957703 1.195092,751.711304 
	C2.947139,754.840210 4.759233,754.799377 6.719336,751.847595 
	C10.195578,746.612488 13.915815,741.511169 16.983440,736.044983 
	C18.473482,733.389832 20.207609,731.605286 22.860157,730.331055 
	C26.171612,728.740417 29.410851,728.543274 33.017693,729.337402 
	C39.796787,730.830078 42.149399,728.788696 41.723236,722.110046 
	C41.536499,719.183533 42.109097,716.546265 43.314606,713.903931 
	C44.474102,711.362488 46.174644,708.390930 43.946232,705.952454 
	C41.621094,703.408142 39.052235,706.013428 36.652470,706.795715 
	C36.068783,706.986084 35.544003,707.357117 34.960125,707.661804 
	C35.639469,710.915161 38.740112,714.446167 34.846802,716.865295 
	C30.525120,719.550537 26.226212,717.697449 22.341459,715.122314 
	C23.532000,708.972656 25.897324,706.560364 32.434109,705.224121 
	C35.427826,704.612122 38.249989,703.826599 40.548172,701.708740 
	C43.190968,699.273315 42.725338,696.493469 39.968315,695.191895 
	C25.612068,688.414551 27.512823,673.701904 23.338900,661.964478 
	C23.239271,661.684265 23.405146,661.310486 23.444567,660.980042 
	C24.479816,652.301392 21.494024,644.621582 17.544008,637.177124 
	C16.582510,635.365051 15.173236,634.778320 13.079649,634.712769 
	C9.653537,634.605408 6.148959,634.333862 3.696485,631.260254 
	C2.416256,629.655762 1.797461,631.359192 1.000000,632.000000 
	C1.000000,618.979126 1.000000,605.958191 1.171847,592.766113 
	C2.101179,593.995911 1.510423,595.928711 3.270631,597.257629 
	C6.830882,589.667786 13.866343,585.958923 20.203497,581.469116 
	C23.850101,578.885559 27.939980,577.514587 32.331074,577.274414 
	C37.151707,577.010803 41.971245,577.013916 46.752071,576.098022 
	C50.095619,575.457520 52.510353,576.707520 53.737846,580.175415 
	C55.289410,584.558838 58.436440,586.268066 63.152264,585.548523 
	C67.723206,584.851135 72.080681,586.013855 76.192657,588.067322 
	C83.350342,591.641785 89.185616,596.652283 93.549454,603.442749 
	C97.886871,610.192139 99.626831,610.040710 103.809776,602.983521 
	C104.828491,601.264832 105.737846,599.461487 106.925301,597.866638 
	C109.985847,593.756165 112.847313,593.763977 115.319763,598.287231 
	C118.165604,603.493530 119.802917,609.244751 118.122520,615.150391 
	C115.673492,623.757446 115.897408,632.424194 117.821251,640.874817 
	C120.270569,651.633728 116.804359,660.506165 110.956757,669.019653 
	C109.102715,671.718933 106.975906,671.830994 104.721794,669.653198 
	C103.653358,668.620911 102.769890,667.377930 101.904060,666.158447 
	C97.863319,660.467041 96.289413,660.578552 92.281898,666.352051 
	C84.288422,677.867981 78.049896,690.334961 72.053764,702.944885 
	C70.925751,705.317017 70.750656,707.753113 71.611702,710.233521 
	C74.016861,717.161987 78.038918,723.030029 83.606544,727.757568 
	C87.600388,731.148926 92.781013,732.632202 97.138504,730.062439 
	C105.948639,724.866943 114.174438,718.673035 122.570007,712.789246 
	C124.080338,711.730896 124.338516,709.072021 127.021584,709.235046 
	C128.934082,711.123718 128.304352,713.593689 128.315140,715.807068 
	C128.398819,732.973206 128.359894,750.140015 128.400177,767.306458 
	C128.414886,773.573059 130.565857,776.011902 136.651169,776.036377 
	C165.316345,776.151672 193.982040,776.173340 222.647476,776.146118 
	C227.399460,776.141602 230.311676,773.115906 230.588364,768.336182 
	C230.694168,766.508545 230.628738,764.670532 230.628708,762.837280 
	C230.628082,698.671021 230.626160,634.504761 230.623398,570.338501 
	C230.623260,566.829163 229.999222,563.450317 235.673187,563.505859 
	C260.670746,563.751038 285.672058,563.672485 310.671539,563.581970 
	C313.773926,563.570740 315.500793,564.709229 316.868958,567.426453 
	C327.388214,588.318665 338.055023,609.136536 348.604767,630.013489 
	C358.406982,649.411194 367.995972,668.917419 377.904846,688.260132 
	C391.556213,714.908447 405.513031,741.400513 419.117065,768.072632 
	C421.953400,773.633545 425.714600,776.283875 432.047302,776.190613 
	C448.043701,775.954956 464.045746,776.095764 480.045502,776.092651 
	C493.211700,776.090027 506.380096,776.242981 519.543335,776.046326 
	C527.542969,775.926880 530.511719,771.279724 526.977661,764.733093 
	C514.262634,741.179565 501.551605,717.622864 488.645874,694.173645 
	C478.251556,675.287476 467.515167,656.589905 457.044617,637.745361 
	C444.203064,614.633362 431.465271,591.463684 418.715363,568.300903 
	C414.992096,561.536865 411.380432,554.711365 407.760895,547.994385 
	C409.723755,545.669067 412.126099,544.875488 414.422913,544.004944 
	C447.817017,531.348206 473.332642,509.145142 492.641327,479.447968 
	C509.770966,453.102173 514.933411,423.432037 516.566040,392.790863 
	C517.114624,382.493988 516.330933,372.226807 515.204712,362.044342 
	C513.254517,344.412231 509.269958,327.309784 501.849274,310.960419 
	C488.604858,281.780273 468.203522,259.365234 440.668945,243.200623 
	C419.383942,230.704895 396.572662,222.519470 372.310333,218.108780 
	C357.427704,215.403229 342.530701,213.165817 327.353790,213.370316 
	C323.522461,213.421951 319.673523,213.529877 315.858978,213.251556 
	C290.285492,211.385757 264.688568,213.169235 239.105591,212.681961 
	C223.472580,212.384216 207.830139,212.576599 192.191940,212.557602 
	C174.701233,212.536362 157.207703,212.332657 139.720978,212.588760 
	C130.681320,212.721161 128.404068,215.489136 128.400879,224.473862 
	C128.379486,284.806854 128.371689,345.139862 128.333618,405.472870 
	C128.331207,409.302429 128.222961,413.140015 127.944046,416.957794 
	C127.813248,418.748077 127.148010,421.473999 124.940582,420.563049 
	C120.882851,418.888489 119.127869,421.328979 116.964317,423.652649 
	C110.604645,430.482941 107.863441,430.193054 103.117371,422.246643 
	C99.976913,416.988617 97.207474,417.011505 94.270882,422.531158 
	C91.846069,427.088867 89.626740,431.762238 87.471390,436.455566 
	C83.088455,445.999451 77.123222,454.257172 68.694061,460.678497 
	C63.293365,464.792786 59.587883,464.664581 55.394588,459.511414 
	C53.309868,456.949554 50.818375,455.214966 47.796852,454.059998 
	C42.307220,451.961578 37.214096,449.169342 32.954170,445.058838 
	C30.927227,443.102997 29.289392,440.709839 26.619070,439.505310 
	C21.801502,437.332153 19.852188,433.074585 17.904882,428.503387 
	C15.771889,423.496338 17.289127,417.105072 12.127006,413.289124 
	C12.398541,404.958344 2.542794,401.588715 2.283719,393.386932 
	C1.855812,394.257965 1.427905,395.128967 0.999999,396.000000 
	C1.000000,387.312439 1.000000,378.624878 1.254355,369.657654 
	C4.498018,370.797821 7.288346,370.452667 9.845252,368.377319 
	C10.756326,367.637817 11.601893,367.035797 12.901850,366.943695 
	C21.264378,366.351410 25.930147,359.931396 23.849112,352.005768 
	C23.087713,349.105988 22.380554,346.188385 21.503864,343.323212 
	C19.037128,335.261444 18.417814,327.421539 22.816601,319.649475 
	C24.817482,316.114136 25.210249,312.088654 23.772469,308.030579 
	C22.105324,303.325195 20.582420,298.567871 19.049107,293.816223 
	C17.960619,290.443054 16.339018,287.976410 12.314196,287.427338 
	C9.355891,287.023712 6.659084,285.483154 5.037765,282.642578 
	C3.465229,279.887482 2.217352,281.415070 1.000000,283.000000 
M189.612350,882.869385 
	C188.478836,886.590332 187.720886,890.336426 192.653427,891.822266 
	C197.163651,893.180847 204.711533,890.245728 205.388809,887.190613 
	C206.134460,883.827087 201.251938,877.994629 196.217941,876.549561 
	C191.384338,875.161987 190.762558,878.905884 189.612350,882.869385 
M101.282349,636.157349 
	C100.648781,635.041443 99.453285,633.907959 98.843536,635.593994 
	C97.670372,638.837891 96.996338,642.332275 99.394241,646.029968 
	C102.157951,642.940186 101.999428,639.898376 101.282349,636.157349 
z"/>
<path fill="#000000" opacity="1.000000" stroke="none" 
	d="
M1.000000,856.468628 
	C2.231184,857.633484 3.587471,858.741699 5.426134,856.791687 
	C10.541796,851.366333 17.587294,852.219360 23.985800,851.310364 
	C28.712322,850.638916 42.290127,860.338318 43.932796,864.796387 
	C44.508793,866.359619 44.252144,867.783813 43.462261,869.091553 
	C39.783134,875.182861 36.756218,881.664307 31.578690,886.817139 
	C27.145641,891.229004 25.246729,897.742126 19.860233,901.457642 
	C16.043999,904.090149 12.506115,907.384827 7.333534,903.969910 
	C4.770073,902.277527 4.789814,899.470093 3.335186,896.671509 
	C1.144777,900.255554 2.483192,904.027710 1.172009,907.636108 
	C1.000000,890.979126 1.000000,873.958191 1.000000,856.468628 
z"/>
<path fill="#000000" opacity="1.000000" stroke="none" 
	d="
M1.000000,435.437500 
	C3.982255,436.026123 6.947057,437.064087 5.628042,441.250397 
	C3.393310,441.487396 4.768761,439.690765 3.840327,439.155304 
	C2.056268,438.875763 2.458418,441.000214 1.225852,441.815308 
	C1.000000,439.958344 1.000000,437.916656 1.000000,435.437500 
z"/>
<path fill="#000000" opacity="1.000000" stroke="none" 
	d="
M311.914673,483.193237 
	C286.941223,483.230774 262.456085,483.287750 237.970932,483.299835 
	C230.857910,483.303345 230.634766,483.055023 230.632858,476.088623 
	C230.617462,419.618195 230.690140,363.147522 230.480423,306.677826 
	C230.461243,301.509491 232.130203,300.075073 236.933014,300.108459 
	C270.742889,300.343719 304.572449,299.784180 338.358124,300.768463 
	C361.912720,301.454651 383.016388,309.786957 398.585114,328.368958 
	C408.329102,339.998871 413.709625,353.789337 415.542358,369.029236 
	C416.430969,376.418701 417.761230,383.778595 417.305054,391.203979 
	C416.243774,408.477753 413.985474,425.535278 404.737518,440.738434 
	C397.863831,452.038483 388.300262,460.561401 376.934906,467.202911 
	C356.980560,478.863434 335.014648,482.309021 311.914673,483.193237 
z"/>
<path fill="#000000" opacity="1.000000" stroke="none" 
	d="
M29.785349,511.870972 
	C28.912441,507.111115 27.688856,502.758270 27.968155,498.252838 
	C28.164953,495.078186 28.419455,491.480042 32.688290,491.329559 
	C36.862446,491.182434 36.961544,494.789856 37.380039,497.693115 
	C38.081387,502.558594 36.753529,507.307648 35.578979,511.884338 
	C34.638527,515.548950 32.033020,515.330078 29.785349,511.870972 
z"/>
<path fill="#000000" opacity="1.000000" stroke="none" 
	d="
M19.967964,935.851501 
	C19.276781,938.680908 17.764368,940.064087 15.177556,939.364319 
	C13.245982,938.841858 12.085064,937.329834 12.212051,935.248230 
	C12.342496,933.109863 13.776681,931.928223 15.786877,931.709229 
	C18.457022,931.418335 19.799850,932.873474 19.967964,935.851501 
z"/>
<path fill="#000000" opacity="1.000000" stroke="none" 
	d="
M451.019165,957.238647 
	C450.140625,955.263245 449.492615,953.479065 448.648651,951.155396 
	C451.252991,951.326904 452.974396,952.687195 455.210083,952.116577 
	C455.163910,955.289124 455.317322,957.969177 451.019165,957.238647 
z"/>
<path fill="#000000" opacity="1.000000" stroke="none" 
	d="
M151.020386,939.417847 
	C147.135727,941.846497 145.874268,939.754517 145.104370,936.554077 
	C152.203995,935.765503 152.203995,935.765503 151.020386,939.417847 
z"/>
<path fill="#000000" opacity="1.000000" stroke="none" 
	d="
M160.227051,937.125183 
	C162.715515,937.340515 165.453461,936.112244 166.899979,939.034546 
	C163.137238,941.873657 161.064514,941.304504 160.227051,937.125183 
z"/>
<path fill="#000000" opacity="1.000000" stroke="none" 
	d="
M228.771912,940.584412 
	C226.086121,939.832214 225.977036,937.709473 225.034668,934.618347 
	C227.695648,936.683228 231.449493,936.475098 228.771912,940.584412 
z"/>
<path fill="#000000" opacity="1.000000" stroke="none" 
	d="
M85.466705,951.690552 
	C89.047569,950.711975 89.289581,952.697754 89.073685,955.459229 
	C86.221275,955.683044 85.368858,954.273926 85.466705,951.690552 
z"/>
</svg>